<svg width="1920" height="1080" viewBox="0 0 1920 1080" fill="none" xmlns="http://www.w3.org/2000/svg">
<g clip-path="url(#clip0)">
<rect width="1920" height="1080" fill="white"/>
<path d="M0 505.612C0 505.612 75.1566 595.172 197.411 609.182C319.666 623.191 319.666 806.315 319.666 806.315C319.666 806.315 667.891 998.946 851.775 928.398C1035.66 857.85 1176.45 1079 1176.45 1079C1176.45 1079 1345.8 909.385 1491.61 857.85C1637.41 806.315 1576.79 674.726 1571.77 557.146C1566.76 439.567 1920 341 1920 341" stroke="black" stroke-width="2" stroke-dasharray="4 10"/>
<path d="M0 765.754C161.991 887.188 251.423 879.946 408.82 753.332C572.481 792.106 654.181 822.647 624.417 1030.75C883.997 1124.36 978.284 1081.62 1104.43 927.237C1301.14 859.374 1404.7 851.604 1557.99 978.994C1611.13 844.103 1626.09 770.879 1517.31 662.239C1579.53 520.516 1636.94 477.658 1798 496.615C1958.29 443.276 1973.24 362.643 1948.51 184" stroke="black" stroke-width="2" stroke-dasharray="4 10"/>
<path d="M0 505.612C0 505.612 75.1566 595.172 197.411 609.182C319.666 623.191 319.666 806.315 319.666 806.315C319.666 806.315 667.891 998.946 851.775 928.398C1035.66 857.85 1176.45 1079 1176.45 1079C1176.45 1079 1345.8 909.385 1491.61 857.85C1637.41 806.315 1576.79 674.726 1571.77 557.146C1566.76 439.567 1920 341 1920 341" stroke="black" stroke-width="2" stroke-dasharray="4 10"/>
<path d="M0 765.754C161.991 887.188 251.423 879.946 408.82 753.332C572.481 792.106 654.181 822.647 624.417 1030.75C883.997 1124.36 978.284 1081.62 1104.43 927.237C1301.14 859.374 1404.7 851.604 1557.99 978.994C1611.13 844.103 1626.09 770.879 1517.31 662.239C1579.53 520.516 1636.94 477.658 1798 496.615C1958.29 443.276 1973.24 362.643 1948.51 184" stroke="black" stroke-width="2" stroke-dasharray="4 10"/>
</g>
<defs>
<clipPath id="clip0">
<rect width="1920" height="1080" fill="white"/>
</clipPath>
</defs>
</svg>
