<svg width="124" height="120" viewBox="0 0 124 120" fill="none" xmlns="http://www.w3.org/2000/svg">
<path d="M20.5 26H30.5V96H20.5V26ZM82.757 96.8C75.757 96.8 69.4237 95.2667 63.757 92.2C58.157 89.0667 53.757 84.8 50.557 79.4C47.357 73.9333 45.757 67.8 45.757 61C45.757 54.2 47.357 48.1 50.557 42.7C53.757 37.2333 58.1904 32.9667 63.857 29.9C69.5237 26.7667 75.857 25.2 82.857 25.2C88.3237 25.2 93.3237 26.1333 97.857 28C102.39 29.8 106.257 32.5 109.457 36.1L102.957 42.4C97.6904 36.8667 91.1237 34.1 83.257 34.1C78.057 34.1 73.357 35.2667 69.157 37.6C64.957 39.9333 61.657 43.1667 59.257 47.3C56.9237 51.3667 55.757 55.9333 55.757 61C55.757 66.0667 56.9237 70.6667 59.257 74.8C61.657 78.8667 64.957 82.0667 69.157 84.4C73.357 86.7333 78.057 87.9 83.257 87.9C91.057 87.9 97.6237 85.1 102.957 79.5L109.457 85.8C106.257 89.4 102.357 92.1333 97.757 94C93.2237 95.8667 88.2237 96.8 82.757 96.8Z" fill="white"/>
</svg>
